Coordinates
version=1
nRows=10
nColumns=28
inDegrees=yes

Units are S.I. units (second, meters, Newtons, ...)
Angles are in degrees.

endheader
time	pelvis_tilt	pelvis_list	pelvis_rotation	pelvis_tx	pelvis_ty	pelvis_tz	hip_flexion_r	hip_adduction_r	hip_rotation_r	knee_angle_r	ankle_angle_r	subtalar_angle_r	mtp_angle_r	hip_flexion_l	hip_adduction_l	hip_rotation_l	knee_angle_l	socket_flexion	socket_adduction	socket_rotation	socket_tx	socket_ty	socket_tz	foot_flex	lumbar_extension	lumbar_bending	lumbar_rotation
      0.00000000	      2.29651846	     -3.27244006	     -2.34746072	     -0.88222822	      0.99644980	      0.25769788	    -26.36285876	      7.19045770	     -7.53812676	     -3.65132523	     12.40116380	     -0.87342615	     13.97825615	     27.69374643	     -1.01230010	      8.34536404	    -11.36631098	     -3.17457727	      0.00000000	      0.00000000	      0.00000000	     -0.00286815	      0.00000000	      1.03196663	    -14.52773600	      2.56888383	      4.13322688
      0.00416667	      2.23393320	     -3.31133561	     -2.27528965	     -0.87665382	      0.99579267	      0.25733712	    -26.48753798	      7.21925600	     -7.48472753	     -3.86700565	     12.34723456	     -0.87772355	     13.97230244	     27.53525350	     -0.94823341	      8.34334447	    -11.38581005	     -3.20668168	      0.00000000	      0.00000000	      0.00000000	     -0.00317802	      0.00000000	      0.95054497	    -14.36870499	      2.58588575	      4.13114124
      0.00833333	      2.19158408	     -3.38868994	     -2.30043591	     -0.87104326	      0.99518397	      0.25698629	    -26.48098313	      7.20409949	     -7.53265017	     -4.39651192	     12.10382948	     -0.96262612	     13.93461613	     27.30066007	     -0.96858885	      8.40391446	    -11.30334386	     -3.24215403	      0.00000000	      0.00000000	      0.00000000	     -0.00368246	      0.00000000	      0.46530231	    -14.29387451	      2.66762618	      4.10781760
      0.01250000	      2.12136856	     -3.42918504	     -2.22993400	     -0.86504764	      0.99448064	      0.25654678	    -26.59649925	      7.22409275	     -7.47403283	     -4.65342144	     12.04043158	     -0.97017582	     13.93007424	     27.12578986	     -0.89800918	      8.41135252	    -11.31707282	     -3.25766039	      0.00000000	      0.00000000	      0.00000000	     -0.00406960	      0.00000000	      0.39098488	    -14.13617239	      2.70731104	      4.11012959
      0.01666667	      2.07323054	     -3.54524130	     -2.27123703	     -0.85919297	      0.99391463	      0.25616089	    -26.49494660	      7.21960961	     -7.53273277	     -5.37689346	     11.73262645	     -1.08908168	     13.89951782	     26.85358344	     -0.96239694	      8.50337857	    -11.14730117	     -3.21297892	      0.00000000	      0.00000000	      0.00000000	     -0.00464328	      0.00000000	     -0.11025923	    -14.08709346	      2.83166028	      4.10111630
      0.02083333	      1.92202019	     -3.68371587	     -2.38803313	     -0.85284297	      0.99318744	      0.25590334	    -26.38068625	      7.22501947	     -7.42236792	     -5.96469030	     11.55025973	     -1.18223810	     14.08441695	     26.46798333	     -1.11167389	      8.57065017	    -10.42031193	     -2.76032835	      0.00000000	      0.00000000	      0.00000000	     -0.00557575	      0.00000000	     -0.31752401	    -13.84368672	      2.98379400	      4.25152406
      0.02500000	      1.86628712	     -3.71068726	     -2.36661772	     -0.84651920	      0.99259247	      0.25550253	    -26.41298868	      7.18787741	     -7.37418213	     -6.43311272	     11.33451623	     -1.24118953	     14.07607171	     26.22016957	     -1.05496365	      8.65351716	    -10.38970614	     -2.78088002	      0.00000000	      0.00000000	      0.00000000	     -0.00611309	      0.00000000	     -0.61922660	    -13.72404971	      2.99292158	      4.25034626
      0.02916667	      1.80693670	     -3.75941230	     -2.35367757	     -0.84013568	      0.99200228	      0.25509753	    -26.40620145	      7.16071277	     -7.34244920	     -6.97088556	     11.08969597	     -1.32752803	     14.06625710	     25.95778761	     -1.02587115	      8.76590536	    -10.33140765	     -2.76720067	      0.00000000	      0.00000000	      0.00000000	     -0.00676594	      0.00000000	     -0.91074039	    -13.59837918	      3.03301242	      4.24894575
      0.03333333	      1.74188007	     -3.82024862	     -2.33641744	     -0.83369126	      0.99144666	      0.25465092	    -26.36141444	      7.14164482	     -7.32237126	     -7.56691163	     10.80440603	     -1.45332474	     14.06273733	     25.68521017	     -1.00718674	      8.88689719	    -10.22803696	     -2.69775875	      0.00000000	      0.00000000	      0.00000000	     -0.00748016	      0.00000000	     -1.19949359	    -13.46807725	      3.09555743	      4.24899906
      0.03750000	      1.66419490	     -3.86353532	     -2.31256170	     -0.82714911	      0.99091692	      0.25420087	    -26.31228426	      7.11260872	     -7.25290574	     -8.14173743	     10.52360228	     -1.56761808	     14.05763876	     25.41411476	     -0.97164909	      9.04823974	    -10.13391118	     -2.65404701	      0.00000000	      0.00000000	      0.00000000	     -0.00817579	      0.00000000	     -1.46522202	    -13.31847979	      3.12412654	      4.24151382
